PathFileType	4	(X/Y/Z)	C:\Documents and Settings\mvidt\Desktop\Forward_reach_ACS_12-5-11\acs_forward8.trc
DataRate	CameraRate	NumFrames	NumMarkers	Units	OrigDataRate	OrigDataStartFrame	OrigNumFrames
200.00	200.00	      24	10	mm	200.00	626	      1000
Frame#	Time	R.Clavicle			C7			R.Shoulder			R.Bicep			R.Elbow.Lateral			R.Forearm			R.Radius			Handle			R.Elbow.Medial			R.Ulna			
		X1	Y1	Z1	X2	Y2	Z2	X3	Y3	Z3	X4	Y4	Z4	X5	Y5	Z5	X6	Y6	Z6	X7	Y7	Z7	X8	Y8	Z8	X9	Y9	Z9	X10	Y10	Z10	

626	3.125	-384.74582	342.98303	304.73761				-420.83572	170.44933	326.28992	-297.89032	124.76704	183.33476	-276.51804	67.12219	80.22093	-186.55933	84.68388	146.78320	-41.32287	106.27604	205.26253	70.36856	105.87383	271.33987	-263.35791	143.70758	48.42649	-23.92850	49.24814	140.86125	
627	3.130	-384.74582	342.98303	304.73761				-421.11282	170.65613	326.31238	-297.97174	125.26430	181.55133	-278.00244	67.02100	79.34465	-188.55115	84.53877	146.57970	-43.34539	104.31355	205.19818	67.82430	105.48138	270.77600	-264.86020	143.46431	47.69787	-25.32502	49.60065	140.56645	
628	3.135	-384.74582	342.98303	304.73761				-421.29895	170.33191	326.34476	-299.90247	122.35300	181.69427	-279.48682	66.91980	78.46837	-190.49121	84.37221	145.59355	-45.49510	104.32198	204.25072	66.02763	105.09870	271.17719	-266.31985	143.46017	46.81462	-27.93479	49.80201	139.88573	
629	3.140	-384.74582	342.98303	304.73761				-420.61218	169.52116	324.95685	-300.51895	122.35275	181.37529	-280.97122	66.81860	77.59209	-190.55556	85.12319	144.40100	-47.21573	105.00739	203.64604	63.35730	104.92931	271.10352	-266.51236	146.18668	44.43184	-29.56392	50.24819	139.92624	
630	3.145	-384.74582	342.98303	304.73761				-420.90787	169.32152	324.84030	-301.59052	122.69852	180.68109	-282.45563	66.71740	76.71581	-192.91614	84.60586	144.42952	-48.77392	104.53942	203.86955	62.16947	105.02042	271.54703	-267.86060	146.26016	43.55994	-30.46246	49.98409	139.64665	
631	3.150	-384.74582	342.98303	304.73761				-420.90787	169.32152	324.84030	-301.26221	124.08136	179.34604	-283.94000	66.61620	75.83952	-195.82361	83.19152	143.91034	-50.50771	104.28172	203.76840	59.85589	104.76911	271.92947	-269.35449	146.34831	42.62261	-31.98815	50.45668	139.17696	
632	3.155	-384.74582	342.98303	304.73761				-420.90787	169.32152	324.84030	-302.86441	123.28478	178.65921	-285.42441	66.51501	74.96324	-196.74756	83.36156	143.40038	-52.87664	103.86778	203.89674	57.88328	104.59066	272.48001	-270.85358	146.43848	41.69328	-33.96571	50.05651	138.72939	
633	3.160	-384.74582	342.98303	304.73761				-421.23019	168.65871	324.41205	-304.00165	122.49374	177.94254	-286.84534	65.61777	74.49991	-198.82347	82.04670	143.40218	-54.21261	103.81744	202.91170	55.68709	104.08174	271.73035	-271.55588	147.02106	40.75010	-35.58368	49.27893	138.46292	
634	3.165	-384.74582	342.98303	304.73761				-421.60269	168.41687	324.63141	-305.51846	121.72358	177.51790	-288.18100	65.99814	73.06514	-200.45618	84.10731	141.57487	-56.08765	103.77338	203.21696	54.00561	104.05162	271.19232	-273.40234	146.64696	40.03730	-37.18775	50.09139	138.26643	
635	3.170	-384.74582	342.98303	304.73761				-421.60269	168.41687	324.63141	-305.59790	122.33092	177.24809	-289.27875	66.80238	72.60966	-202.26605	82.75605	140.94563	-58.50186	103.87042	202.94431	52.09039	103.83700	271.61530	-274.50885	146.68661	39.33965	-38.76123	50.06859	137.45186	
636	3.175	-383.96594	342.39474	305.47351				-421.98459	168.04256	324.54892	-305.95529	122.62011	176.39157	-290.71463	67.33714	71.25311	-203.41692	83.26875	141.56799	-59.33983	104.06364	203.39217	49.76124	103.63828	271.18283	-275.71881	146.58066	38.69819	-40.77979	49.38028	137.52502	
637	3.180	-383.96594	342.39474	305.47351				-421.92847	167.45877	324.42062	-306.92160	121.08913	176.28651	-293.13162	65.43104	70.89803	-205.13826	81.62941	139.72832	-61.38648	103.60345	202.24159	48.64904	102.97700	271.99112	-277.36502	147.13890	37.42455	-42.55276	50.67304	136.73793	
638	3.185	-383.66623	342.32870	305.38864				-422.74838	167.16690	323.94397	-308.09247	122.03602	174.67464	-293.13162	65.43104	70.89803	-205.83147	83.40088	138.36749	-63.86221	103.26958	201.60989	46.79702	103.65281	270.70248	-276.70978	146.73640	37.52289	-43.61614	49.86794	136.53664	
639	3.190	-383.66623	342.32870	305.38864				-422.32376	167.08273	324.32880	-308.42551	121.91863	174.46893	-295.72455	65.52927	70.25295	-206.50859	82.83310	138.09090	-65.08124	103.69432	201.33861	44.46603	103.57832	270.43350	-279.43454	146.81941	36.18748	-44.98869	49.30526	136.92178	
640	3.195	-383.66623	342.32870	305.38864				-422.32376	167.08273	324.32880	-308.73669	122.90945	173.60004	-297.73218	64.92536	69.35680	-209.30548	81.18060	137.56335	-66.45296	104.53360	201.11162	42.64976	103.13342	270.95285	-281.33542	147.00870	35.11976	-46.67521	50.00863	136.45981	
641	3.200	-383.72205	342.32224	305.63809				-422.55670	167.14835	324.10620	-309.61151	122.59422	172.57216	-297.86139	64.69614	68.82918	-211.07367	81.65279	137.63957	-68.72314	103.29459	200.91296	40.43926	103.33753	270.54492	-281.25995	147.41954	34.91563	-48.97460	50.28156	135.99983	
642	3.205	-383.66623	342.32870	305.38864				-422.84079	166.96553	323.98911	-311.48398	123.23672	172.53497	-298.95319	65.32618	68.13100	-212.01463	82.21144	136.43199	-70.40425	103.50124	200.70003	39.14620	103.51642	270.63535	-282.42117	147.12804	34.22112	-50.53741	50.23286	136.11993	
643	3.210	-383.66623	342.32870	305.38864				-422.76984	166.63499	324.23923	-312.63318	120.95402	173.00189	-300.56265	66.06570	66.82498	-213.94272	82.11299	137.59097	-72.07738	104.07274	200.02107	37.72890	103.67028	270.64777	-284.57687	147.14375	33.21337	-51.99151	50.63426	135.60072	
644	3.215	-383.72205	342.32224	305.63809				-423.28891	167.00137	324.22693	-313.35117	120.30370	172.75136	-302.63321	65.78595	66.31524	-214.96336	81.51557	135.69234	-73.98673	103.23936	200.49683	35.23877	103.88067	269.89355	-286.25851	147.25613	32.59061	-53.53981	50.48296	135.64841	
645	3.220	-383.66623	342.32870	305.38864				-423.47565	166.55258	324.34354	-315.08667	118.56589	172.11676	-302.91248	65.73097	65.82031	-216.64557	81.87968	134.71764	-75.27460	104.34328	199.57068	33.95370	104.06133	269.71463	-286.76984	146.65775	32.37126	-54.32390	50.58201	135.11205	
646	3.225	-383.66623	342.32870	305.38864				-423.92667	167.44603	323.46207	-314.61002	118.52380	171.30745	-304.65198	64.36578	65.27137	-219.00165	79.84462	135.87064	-76.66889	105.10884	199.10202	31.97986	104.21419	270.13437	-287.39401	147.40056	31.41979	-56.83506	49.58043	134.62383	
647	3.230	-383.66623	342.32870	305.38864				-423.92667	167.44603	323.46207	-315.72852	119.58890	170.36882	-306.07565	65.14056	64.29610	-219.01125	81.19701	134.24014	-78.33053	104.31000	198.88405	30.10784	104.17114	269.79501	-289.05551	147.57507	30.51797	-57.97426	50.20434	134.48021	
648	3.235	-383.66623	342.32870	305.38864				-424.53903	167.59387	323.14847	-316.25790	119.47631	170.25076	-308.24188	64.31230	64.96046	-220.27715	80.84949	134.04816	-79.70650	103.96155	199.52049	29.00795	104.24558	270.05710	-290.01169	147.65126	29.93732	-58.79796	50.62038	133.31461	
649	3.240	-383.66623	342.32870	305.38864				-423.92667	167.44603	323.46207	-317.39285	118.61283	169.88562	-308.60416	63.97609	63.93497	-221.88121	81.71044	133.26469	-82.07005	105.17259	198.85881	26.37639	103.69334	270.08713	-291.02664	147.68105	29.37411	-61.12735	49.90220	134.70468	
